# xmcd
#
# Track frame offsets:
#	150
#	14067
#	27612
#	44065
#	57555
#	68410
#	84852
#	98972
#	110242
#	131550
#	151500
#	163795
#	177880
#	195905
#	205727
#
# Disc length: 2960
#
# Revision: 1
# Processed by: cddbd v1.5.1PL0 Copyright (c) Steve Scherf et al.
# Submitted via: dBpowerAMP V4.0
# Normalized: r0:TDELIM( - )
#
DISCID=ca0b8e0f
DTITLE=Various Artist - Original Blues Classics
DYEAR=1900
DGENRE=Blues
TTITLE0=Jimmy Witherspoon - Kansas City
TTITLE1=Lonnie Johnson - Leave Me Or Love Me
TTITLE2=Memphis Slim - Mean Mistreatin' Mama
TTITLE3=King Curtis - Trouble In Mind
TTITLE4=Eddie "Bluesman" Kirkland - Down On My Knees
TTITLE5=Little Brother Montgomery - Michigan Water Blues
TTITLE6=Pink Anderson - I've Got Mine
TTITLE7=Al Smith - Pledging My Love
TTITLE8=Blind Willie McTell - The Dyin' Crapshooter's Blues
TTITLE9=Lightnin' Hopkins - Wake Up Old Lady
TTITLE10=Alberta hunter - You've Gotta Reap What You Sow
TTITLE11=Tampa Red - Boggie Woogie Woman
TTITLE12=Reverend Gary Davis - Say No To The Devil
TTITLE13=Curtis Jones - Good Time Special
TTITLE14=Sonny Terry - Changed The Lock On My Door
EXTD=
EXTT0=
EXTT1=
EXTT2=
EXTT3=
EXTT4=
EXTT5=
EXTT6=
EXTT7=
EXTT8=
EXTT9=
EXTT10=
EXTT11=
EXTT12=
EXTT13=
EXTT14=
PLAYORDER=
